<?xml version="1.0" encoding="iso-8859-1"?>
<!-- Generator: Adobe Illustrator 19.0.0, SVG Export Plug-In . SVG Version: 6.00 Build 0)  -->
<svg version="1.1" id="Capa_1" xmlns="http://www.w3.org/2000/svg" xmlns:xlink="http://www.w3.org/1999/xlink" x="0px" y="0px"
	 viewBox="0 0 512.002 512.002" style="enable-background:new 0 0 512.002 512.002;" xml:space="preserve">
<g>
	<g>
		<path d="M504.5,400H326.524c15.314-13.367,31.893-24.854,49.458-34.335c0.581-0.227,1.132-0.519,1.638-0.879
			c38.621-20.504,81.913-31.386,126.88-31.386c4.143,0,7.5-3.357,7.5-7.5s-3.357-7.5-7.5-7.5
			c-46.958,0-92.182,11.254-132.616,32.456c-52.63-8.614-106.196,6.053-146.884,39.701V217.5c0-4.143-3.357-7.5-7.5-7.5
			s-7.5,3.357-7.5,7.5V240h-3.861c-14.127,0-27.944-2.001-41.139-5.85V192.5c0-15.163-12.337-27.5-27.5-27.5h-50
			c-7.121,0-13.619,2.722-18.508,7.179C62.305,161.853,50.692,155,37.5,155C16.822,155,0,171.822,0,192.5v70
			C0,283.178,16.822,300,37.5,300h23.01c1.577,11.32,6.814,21.489,14.49,29.286V400H7.5c-4.143,0-7.5,3.357-7.5,7.5
			s3.357,7.5,7.5,7.5h60.927l-37.154,55.318C30.443,471.554,30,473.01,30,474.5v30c0,4.143,3.357,7.5,7.5,7.5s7.5-3.357,7.5-7.5
			v-27.715l43.706-65.074c0.196-0.288,0.366-0.595,0.521-0.91c0.027-0.055,0.054-0.109,0.079-0.165
			c0.277-0.6,0.475-1.242,0.586-1.915c0.012-0.074,0.024-0.147,0.034-0.221c0.044-0.328,0.074-0.66,0.074-1v-67.546
			c6.824,3.231,14.452,5.046,22.5,5.046c8.048,0,15.676-1.815,22.5-5.046V400h-22.5c-4.143,0-7.5,3.357-7.5,7.5s3.357,7.5,7.5,7.5
			H135v79.5c0,3.229,2.065,6.095,5.128,7.115l30,10c0.787,0.262,1.587,0.387,2.373,0.387c3.141,0,6.066-1.987,7.114-5.13
			c1.31-3.93-0.813-8.178-4.743-9.487L150,489.095V329.286c9.27-9.417,15-22.29,15-36.475v-23.193c0-4.143-3.357-7.5-7.5-7.5
			s-7.5,3.357-7.5,7.5V285H75v-92.5c0-6.893,5.607-12.5,12.5-12.5h50c6.893,0,12.5,5.607,12.5,12.5v36.37
			c-17.433-7.249-33.444-17.921-47.196-31.674c-2.93-2.928-7.678-2.928-10.607,0c-2.929,2.93-2.929,7.678,0,10.607
			C122.632,238.238,163.098,255,206.139,255H210v145h-37.5c-4.143,0-7.5,3.357-7.5,7.5s3.357,7.5,7.5,7.5H210v89.5
			c0,4.143,3.357,7.5,7.5,7.5s7.5-3.357,7.5-7.5V415h279.5c4.143,0,7.5-3.357,7.5-7.5S508.643,400,504.5,400z M60,285H37.5
			C25.094,285,15,274.906,15,262.5V245h7.5c4.143,0,7.5-3.357,7.5-7.5s-3.357-7.5-7.5-7.5H15v-15h45V285z M60,200H15v-7.5
			c0-12.406,10.094-22.5,22.5-22.5S60,180.094,60,192.5V200z M149.291,299.999c-1.554,7.834-5.596,14.79-11.273,20.029
			c-0.343,0.256-0.663,0.54-0.957,0.85c-6.585,5.675-15.172,9.122-24.56,9.122s-17.976-3.447-24.561-9.122
			c-0.294-0.31-0.614-0.594-0.957-0.85c-5.678-5.239-9.719-12.195-11.273-20.029H149.291z M237.185,400
			c31.942-25.355,72.07-38.275,112.805-36.385c-16.206,10.44-31.46,22.602-45.543,36.385H237.185z"/>
	</g>
</g>
<g>
	<g>
		<path d="M187.5,65h-32.053l-10.784-34.725c-0.974-3.138-3.877-5.275-7.162-5.275h-50c-3.285,0-6.188,2.138-7.162,5.275L69.554,65
			H37.5c-4.143,0-7.5,3.357-7.5,7.5s3.357,7.5,7.5,7.5h25.497C61.025,85.578,60,91.479,60,97.5c0,28.948,23.552,52.5,52.5,52.5
			c28.948,0,52.5-23.552,52.5-52.5c0-6.021-1.025-11.922-2.996-17.5H187.5c4.143,0,7.5-3.357,7.5-7.5S191.643,65,187.5,65z
			 M93.024,40h38.951l7.765,25H85.26L93.024,40z M112.5,135C91.822,135,75,118.178,75,97.5c0-6.157,1.51-12.13,4.351-17.5h66.298
			C148.491,85.37,150,91.342,150,97.5C150,118.178,133.178,135,112.5,135z"/>
	</g>
</g>
<g>
	<g>
		<path d="M504.502,75h-23.044c-1.276-8.88-4.775-17.053-9.925-23.924l16.306-16.306c2.929-2.93,2.929-7.678,0-10.607
			c-2.93-2.928-7.678-2.928-10.607,0l-16.306,16.306c-6.871-5.15-15.043-8.648-23.924-9.925V7.5c0-4.143-3.357-7.5-7.5-7.5
			s-7.5,3.357-7.5,7.5v23.044c-8.88,1.276-17.053,4.775-23.924,9.925l-16.306-16.306c-2.93-2.928-7.678-2.928-10.607,0
			c-2.929,2.93-2.929,7.678,0,10.607l16.306,16.306c-5.15,6.871-8.648,15.043-9.925,23.924h-23.044c-4.143,0-7.5,3.357-7.5,7.5
			s3.355,7.5,7.498,7.5h23.044c1.276,8.88,4.775,17.053,9.925,23.924l-16.306,16.306c-2.929,2.93-2.929,7.678,0,10.607
			c1.465,1.464,3.385,2.196,5.304,2.196c1.919,0,3.839-0.732,5.304-2.196l16.306-16.306c6.871,5.15,15.043,8.648,23.924,9.925V157.5
			c0,4.143,3.357,7.5,7.5,7.5s7.5-3.357,7.5-7.5v-23.044c8.88-1.276,17.053-4.775,23.924-9.925l16.306,16.306
			c1.465,1.464,3.385,2.196,5.304,2.196c1.919,0,3.839-0.732,5.304-2.196c2.929-2.93,2.929-7.678,0-10.607l-16.306-16.306
			c5.15-6.871,8.648-15.043,9.925-23.924h23.044c4.143,0,7.5-3.357,7.5-7.5S508.645,75,504.502,75z M429.5,120
			c-20.678,0-37.5-16.822-37.5-37.5S408.822,45,429.5,45c20.678,0,37.5,16.822,37.5,37.5S450.178,120,429.5,120z"/>
	</g>
</g>
<g>
</g>
<g>
</g>
<g>
</g>
<g>
</g>
<g>
</g>
<g>
</g>
<g>
</g>
<g>
</g>
<g>
</g>
<g>
</g>
<g>
</g>
<g>
</g>
<g>
</g>
<g>
</g>
<g>
</g>
</svg>
