<svg id="Layer_1" height="512" viewBox="0 0 128 128" width="512" xmlns="http://www.w3.org/2000/svg" data-name="Layer 1"><path d="m115.76 46.324a17.012 17.012 0 0 0 -2.173-4.012v-27.379a7.183 7.183 0 1 0 -14.365 0v20.34h-71a17.144 17.144 0 0 0 -15.982 11.051c-4.3 11.448-7.7 26.993.479 36.038a14.058 14.058 0 0 0 10.949 4.858 33.082 33.082 0 0 0 11.719-2.713c4.083 5.457 11.983 9.318 21.431 10.626v9.106a16.186 16.186 0 0 0 16.168 16.168h24.933a15.685 15.685 0 0 0 15.668-15.668v-20.777a16.069 16.069 0 0 0 1.694-1.6c8.181-9.046 4.776-24.59.479-36.038zm-44.577 48.809c9.443-1.307 17.341-5.165 21.425-10.618a44.671 44.671 0 0 0 6.614 2.091v15.418a4.022 4.022 0 0 1 -4.017 4.018h-21.474a2.552 2.552 0 0 1 -2.549-2.549zm31.539-19.054h7.365v4.838h-7.365zm0 8.338h7.365v4.837h-7.365zm7.365-11.838h-7.365v-4.838h7.365zm-10.865 3.5a100.076 100.076 0 0 1 -11.192-4.717 108.482 108.482 0 0 0 -15.316-6.232 31.347 31.347 0 0 0 -17.429 0 108.223 108.223 0 0 0 -15.316 6.233c-5.981 2.8-12.167 5.69-16.235 5.69a4.086 4.086 0 0 1 -3.472-1.514c-3.6-3.976-3.034-13.561 1.5-25.643a6.921 6.921 0 0 1 6.458-4.455h71zm3.5 16.678h7.365v4.838h-7.365zm3.683-81.5a3.687 3.687 0 0 1 3.683 3.683v28.001.065 21.235h-7.365v-49.308a3.687 3.687 0 0 1 3.677-3.683zm-91.091 68.758c-7.368-8.145-3.035-23.834.2-32.46a13.626 13.626 0 0 1 12.7-8.781h71v3.17h-71a10.441 10.441 0 0 0 -9.735 6.725c-5.153 13.73-5.444 24.106-.819 29.221a7.576 7.576 0 0 0 6.067 2.666c4.847 0 11.39-3.061 17.718-6.02a105.774 105.774 0 0 1 14.811-6.043 27.845 27.845 0 0 1 15.474 0 105.936 105.936 0 0 1 14.82 6.041 90.73 90.73 0 0 0 12.672 5.2v3.285c-4.336-1.09-9.056-3.293-14.016-5.612a103.251 103.251 0 0 0 -14.356-5.87 24.445 24.445 0 0 0 -13.7 0 103.321 103.321 0 0 0 -14.355 5.871c-2.52 1.179-4.963 2.32-7.311 3.3-.054.018-.106.042-.158.066-8.066 3.357-14.993 4.789-20.012-.759zm23.442 3.085c1.84-.807 3.686-1.669 5.522-2.528a100.938 100.938 0 0 1 13.852-5.681 20.971 20.971 0 0 1 11.742 0 100.8 100.8 0 0 1 13.852 5.68c1.874.876 3.712 1.73 5.522 2.527-4.646 5.46-14.415 9.023-25.246 9.023s-20.6-3.563-25.244-9.021zm59.163 33.8h-24.934a12.682 12.682 0 0 1 -12.668-12.668v-8.751c1.212.084 2.436.14 3.683.14s2.471-.056 3.683-.14v8.011a6.056 6.056 0 0 0 6.049 6.049h21.473a7.526 7.526 0 0 0 7.517-7.518v-.933h7.365v3.647a12.182 12.182 0 0 1 -12.168 12.169zm15.668-38.02v-28.2c2.806 8.462 5.369 20.789 0 28.207z"/></svg>